<svg width="312" height="44" xmlns="http://www.w3.org/2000/svg" xmlns:xlink="http://www.w3.org/1999/xlink" xml:space="preserve" overflow="hidden"><defs><linearGradient x1="5.95965" y1="12.7647" x2="17.8801" y2="33.4118" gradientUnits="userSpaceOnUse" spreadMethod="pad" id="fill0"><stop offset="0" stop-color="#43B2FF" stop-opacity="1"/><stop offset="1" stop-color="#52BD94" stop-opacity="1"/></linearGradient></defs><g transform="translate(-60 -32)"><g><g><g><g><path d="M11.9372 34.6643C9.67623 34.6643 7.65287 34.1644 5.86707 33.1611 4.07718 32.1616 2.6723 30.7814 1.64014 29.0201 0.61208 27.259 0.0959975 25.2641 0.0959975 23.0361 0.0959975 20.7751 0.61208 18.7804 1.64014 17.052 2.6682 15.3235 4.07307 13.9555 5.8466 12.9561 7.62011 11.9567 9.65166 11.4529 11.9412 11.4529 14.2022 11.4529 16.2255 11.9485 18.0113 12.9315 19.7971 13.9186 21.202 15.2867 22.2178 17.0274 23.2335 18.7722 23.7415 20.7751 23.7415 23.0361 23.7415 25.297 23.2335 27.2998 22.2178 29.0446 21.202 30.7895 19.8012 32.1616 18.0113 33.1652 16.2214 34.1644 14.1981 34.6643 11.9372 34.6643ZM11.9372 31.0598C13.3953 31.0598 14.706 30.7322 15.861 30.0727 17.0201 29.4133 17.9253 28.4794 18.5847 27.263 19.2442 26.0464 19.5719 24.6375 19.5719 23.0361 19.5719 21.406 19.2442 19.9969 18.5847 18.8091 17.9253 17.6213 17.0201 16.6997 15.861 16.0403 14.7019 15.3809 13.3953 15.0532 11.9372 15.0532 10.479 15.0532 9.17654 15.3809 8.03379 16.0403 6.89105 16.6997 5.97356 17.6213 5.28955 18.8091 4.60144 19.9969 4.26149 21.406 4.26149 23.0361 4.26149 24.6375 4.60555 26.0464 5.28955 27.263 5.97766 28.4794 6.89105 29.4173 8.03379 30.0727 9.17654 30.7322 10.479 31.0598 11.9372 31.0598Z" fill="#333333" fill-rule="nonzero" fill-opacity="1" transform="matrix(1 0 0 1.00609 60 33)"/><path d="M29.4419 42.7331 29.4419 11.67 33.3904 11.67 33.3904 17.8056 33.1325 23.0812 33.5624 28.3606 33.5624 42.7331 29.4419 42.7331ZM41.5003 34.6643C39.612 34.6643 37.8877 34.23 36.3313 33.3534 34.7707 32.4811 33.5257 31.1867 32.5999 29.4708 31.6701 27.7545 31.2073 25.6081 31.2073 23.0361 31.2073 20.4638 31.658 18.3176 32.5589 16.6014 33.4601 14.8852 34.6888 13.5991 36.2493 12.739 37.8099 11.883 39.5588 11.4529 41.5043 11.4529 43.7366 11.4529 45.7108 11.9403 47.427 12.9111 49.1432 13.8859 50.503 15.2334 51.5024 16.966 52.5017 18.6985 53.0056 20.7219 53.0056 23.0361 53.0056 25.3543 52.5058 27.3859 51.5024 29.1308 50.4989 30.8756 49.1432 32.2354 47.427 33.206 45.7027 34.1809 43.7283 34.6643 41.5003 34.6643ZM41.1562 31.0598C42.6143 31.0598 43.9249 30.7322 45.0799 30.0727 46.2393 29.4133 47.1526 28.4794 47.8243 27.263 48.4959 26.0464 48.8318 24.6375 48.8318 23.0361 48.8318 21.406 48.4959 19.9969 47.8243 18.8091 47.1526 17.6213 46.235 16.6997 45.0799 16.0403 43.9208 15.3809 42.6143 15.0532 41.1562 15.0532 39.7268 15.0532 38.4324 15.3809 37.2733 16.0403 36.1142 16.6997 35.2009 17.6213 34.5249 18.8091 33.8533 19.9969 33.5173 21.406 33.5173 23.0361 33.5173 24.6375 33.8533 26.0464 34.5249 27.263 35.1966 28.4794 36.1142 29.4173 37.2733 30.0727 38.4324 30.7322 39.7268 31.0598 41.1562 31.0598Z" fill="#333333" fill-rule="nonzero" fill-opacity="1" transform="matrix(1 0 0 1.00609 60 33)"/><path d="M68.827 34.635C66.394 34.635 64.256 34.1352 62.4128 33.1316 60.5697 32.1324 59.1362 30.7561 58.1205 29.0113 57.1045 27.2664 56.5968 25.2637 56.5968 23.0027 56.5968 20.7417 57.0924 18.7388 58.0754 16.994 59.0625 15.2491 60.4222 13.8852 62.1508 12.8981 63.8792 11.911 65.8329 11.4195 68.0079 11.4195 70.2113 11.4195 72.1571 11.9069 73.8444 12.8777 75.532 13.8525 76.855 15.2164 77.8134 16.9735 78.7719 18.7306 79.251 20.7868 79.251 23.1297 79.251 23.3017 79.2429 23.5024 79.2305 23.7317 79.2142 23.9612 79.1937 24.174 79.1651 24.3747L59.8121 24.3747 59.8121 21.4135 77.0187 21.4135 75.3476 22.4416C75.3762 20.9834 75.0732 19.6809 74.4466 18.5381 73.8158 17.3954 72.9516 16.4984 71.8498 15.8553 70.7479 15.2123 69.47 14.8887 68.0079 14.8887 66.5784 14.8887 65.3046 15.2123 64.1906 15.8553 63.0764 16.4984 62.204 17.3995 61.5732 18.5586 60.9424 19.7178 60.6312 21.0407 60.6312 22.5275L60.6312 23.2156C60.6312 24.7311 60.9793 26.0828 61.6839 27.2705 62.3842 28.4582 63.3631 29.3799 64.6246 30.0394 65.882 30.6989 67.3279 31.0265 68.9582 31.0265 70.3015 31.0265 71.5262 30.7972 72.628 30.3384 73.7299 29.8796 74.6924 29.1955 75.5239 28.2781L77.797 30.9363C76.7689 32.1364 75.4869 33.0538 73.9551 33.6847 72.4231 34.3236 70.7112 34.635 68.827 34.635Z" fill="#333333" fill-rule="nonzero" fill-opacity="1" transform="matrix(1 0 0 1.00609 60 33)"/><path d="M97.1062 11.4529C98.9658 11.4529 100.604 11.8093 102.021 12.526 103.438 13.2428 104.544 14.3282 105.347 15.7863 106.15 17.2445 106.547 19.0917 106.547 21.3199L106.547 34.4061 102.427 34.4061 102.427 21.7908C102.427 19.5873 101.89 17.9285 100.817 16.8144 99.7438 15.7003 98.2366 15.1392 96.2911 15.1392 94.833 15.1392 93.5592 15.4259 92.4738 15.9993 91.3842 16.5728 90.5486 17.4165 89.9628 18.5306 89.3773 19.6447 89.0824 21.0331 89.0824 22.692L89.0824 34.4061 84.9619 34.4061 84.9619 11.6659 88.9104 11.6659 88.9104 17.8015 88.2674 16.1714C89.0087 14.6846 90.1554 13.5254 91.6996 12.694 93.2438 11.8666 95.0459 11.4529 97.1062 11.4529Z" fill="#333333" fill-rule="nonzero" fill-opacity="1" transform="matrix(1 0 0 1.00609 60 33)"/><path d="M125.727 34.3916 125.727 2.55436 129.848 2.55436 129.848 17.7009 129.418 22.9764 129.676 28.2518 129.676 34.3875 125.727 34.3875 125.727 34.3916ZM137.786 34.6495C135.84 34.6495 134.087 34.2155 132.531 33.3389 130.97 32.4666 129.741 31.1722 128.84 29.456 127.939 27.7398 127.489 25.5936 127.489 23.0215 127.489 20.4492 127.951 18.303 128.881 16.5868 129.811 14.8706 131.056 13.5845 132.613 12.7244 134.173 11.8684 135.893 11.4383 137.782 11.4383 140.014 11.4383 141.988 11.9257 143.704 12.8964 145.42 13.8713 146.78 15.2188 147.78 16.9513 148.779 18.6839 149.283 20.7073 149.283 23.0215 149.283 25.3397 148.783 27.3712 147.78 29.116 146.776 30.8609 145.42 32.2208 143.704 33.1915 141.992 34.1664 140.018 34.6495 137.786 34.6495ZM137.442 31.0453C138.9 31.0453 140.21 30.7175 141.365 30.0582 142.525 29.3987 143.438 28.4649 144.11 27.2483 144.781 26.0319 145.117 24.623 145.117 23.0215 145.117 21.3912 144.781 19.9823 144.11 18.7945 143.438 17.6067 142.521 16.6851 141.365 16.0257 140.206 15.3663 138.9 15.0386 137.442 15.0386 136.012 15.0386 134.718 15.3663 133.559 16.0257 132.4 16.6851 131.486 17.6067 130.81 18.7945 130.139 19.9823 129.803 21.3912 129.803 23.0215 129.803 24.623 130.139 26.0319 130.81 27.2483 131.482 28.4649 132.4 29.4028 133.559 30.0582 134.718 30.7175 136.012 31.0453 137.442 31.0453Z" fill="#333333" fill-rule="nonzero" fill-opacity="1" transform="matrix(1 0 0 1.00609 60 33)"/><path d="M154.99 34.3768 154.99 11.6366 158.938 11.6366 158.938 17.8132 158.553 16.269C159.184 14.6962 160.241 13.4961 161.728 12.6647 163.214 11.8373 165.045 11.4195 167.22 11.4195L167.22 15.4089C167.048 15.3802 166.884 15.3679 166.725 15.3679 166.569 15.3679 166.417 15.3679 166.274 15.3679 164.071 15.3679 162.326 16.0274 161.04 17.3421 159.753 18.6569 159.11 20.5615 159.11 23.0476L159.11 34.3768 154.99 34.3768Z" fill="#333333" fill-rule="nonzero" fill-opacity="1" transform="matrix(1 0 0 1.00609 60 33)"/><path d="M177.252 34.6643C175.564 34.6643 174.081 34.3775 172.812 33.8041 171.538 33.2306 170.559 32.4401 169.871 31.4244 169.183 30.4087 168.843 29.2577 168.843 27.9717 168.843 26.7429 169.133 25.6246 169.723 24.6251 170.309 23.6259 171.267 22.823 172.599 22.221 173.93 21.6188 175.724 21.3199 177.985 21.3199L185.194 21.3199 185.194 24.2811 178.157 24.2811C176.097 24.2811 174.708 24.6251 173.995 25.3092 173.279 25.9973 172.922 26.8247 172.922 27.7996 172.922 28.9136 173.365 29.8105 174.253 30.4824 175.138 31.1541 176.371 31.49 177.944 31.49 179.488 31.49 180.84 31.1459 181.999 30.4619 183.158 29.7778 183.993 28.7743 184.51 27.4596L185.325 30.2899C184.78 31.6332 183.821 32.6982 182.449 33.4846 181.069 34.2711 179.336 34.6643 177.252 34.6643ZM184.714 34.4061 184.714 29.6017 184.501 28.7006 184.501 20.5048C184.501 18.7599 183.993 17.4083 182.978 16.4499 181.962 15.4914 180.438 15.0122 178.407 15.0122 177.063 15.0122 175.744 15.2334 174.458 15.6758 173.172 16.1181 172.083 16.712 171.198 17.4574L169.482 14.3692C170.653 13.4271 172.062 12.7022 173.709 12.2024 175.351 11.7028 177.075 11.4529 178.878 11.4529 181.995 11.4529 184.399 12.2107 186.086 13.7261 187.774 15.2416 188.618 17.5599 188.618 20.6768L188.618 34.4061 184.714 34.4061Z" fill="#333333" fill-rule="nonzero" fill-opacity="1" transform="matrix(1 0 0 1.00609 60 33)"/><path d="M206.178 34.635C203.86 34.635 201.796 34.1352 199.977 33.1316 198.159 32.1324 196.737 30.7561 195.709 29.0113 194.681 27.2664 194.165 25.2637 194.165 23.0027 194.165 20.7417 194.681 18.7388 195.709 16.994 196.737 15.2491 198.163 13.8852 199.977 12.8981 201.792 11.911 203.86 11.4195 206.178 11.4195 208.239 11.4195 210.074 11.8291 211.691 12.6442 213.305 13.4593 214.558 14.6675 215.447 16.269L212.314 18.2842C211.569 17.1701 210.663 16.3469 209.59 15.8185 208.517 15.2901 207.366 15.0239 206.138 15.0239 204.651 15.0239 203.319 15.3516 202.148 16.011 200.977 16.6704 200.047 17.592 199.359 18.7798 198.671 19.9676 198.331 21.3765 198.331 23.0068 198.331 24.6369 198.675 26.0541 199.359 27.2541 200.043 28.4542 200.977 29.384 202.148 30.0435 203.319 30.7029 204.651 31.0305 206.138 31.0305 207.366 31.0305 208.517 30.7643 209.59 30.236 210.663 29.7075 211.569 28.8844 212.314 27.7701L215.447 29.7445C214.558 31.3173 213.309 32.5256 211.691 33.3693 210.074 34.2129 208.239 34.635 206.178 34.635Z" fill="#333333" fill-rule="nonzero" fill-opacity="1" transform="matrix(1 0 0 1.00609 60 33)"/><path d="M220.473 34.3916 220.473 2.55436 224.593 2.55436 224.593 34.3916 220.473 34.3916ZM223.819 28.8989 223.905 23.6235 236.992 11.6513 241.969 11.6513 231.929 21.5182 229.696 23.4064 223.819 28.8989ZM237.847 34.3916 228.923 23.3205 231.585 20.0151 242.913 34.3875 237.847 34.3875 237.847 34.3916Z" fill="#333333" fill-rule="nonzero" fill-opacity="1" transform="matrix(1 0 0 1.00609 60 33)"/><path d="M256.073 34.635C253.639 34.635 251.502 34.1352 249.658 33.1316 247.816 32.1324 246.382 30.7561 245.364 29.0113 244.349 27.2664 243.841 25.2637 243.841 23.0027 243.841 20.7417 244.337 18.7388 245.32 16.994 246.307 15.2491 247.668 13.8852 249.395 12.8981 251.124 11.911 253.079 11.4195 255.252 11.4195 257.456 11.4195 259.402 11.9069 261.091 12.8777 262.777 13.8525 264.099 15.2164 265.059 16.9735 266.016 18.7306 266.495 20.7868 266.495 23.1297 266.495 23.3017 266.489 23.5024 266.476 23.7317 266.459 23.9612 266.439 24.174 266.41 24.3747L247.057 24.3747 247.057 21.4135 264.264 21.4135 262.593 22.4416C262.621 20.9834 262.319 19.6809 261.691 18.5381 261.061 17.3954 260.197 16.4984 259.095 15.8553 257.994 15.2123 256.716 14.8887 255.252 14.8887 253.823 14.8887 252.549 15.2123 251.436 15.8553 250.322 16.4984 249.448 17.3995 248.818 18.5586 248.187 19.7178 247.875 21.0407 247.875 22.5275L247.875 23.2156C247.875 24.7311 248.224 26.0828 248.929 27.2705 249.63 28.4582 250.609 29.3799 251.869 30.0394 253.128 30.6989 254.573 31.0265 256.203 31.0265 257.547 31.0265 258.772 30.7972 259.872 30.3384 260.975 29.8796 261.937 29.1955 262.768 28.2781L265.042 30.9363C264.014 32.1364 262.732 33.0538 261.2 33.6847 259.672 34.3236 257.96 34.635 256.073 34.635Z" fill="#333333" fill-rule="nonzero" fill-opacity="1" transform="matrix(1 0 0 1.00609 60 33)"/><path d="M268.95 15.0335 268.95 11.6421 283.454 11.6421 283.454 15.0335 268.95 15.0335ZM280.022 34.6403C277.733 34.6403 275.96 34.026 274.701 32.7972 273.444 31.5686 272.814 29.8073 272.814 27.5218L272.814 6.66973 276.934 6.66973 276.934 27.3498C276.934 28.5786 277.242 29.5246 277.855 30.18 278.471 30.8395 279.351 31.1671 280.494 31.1671 281.779 31.1671 282.854 30.8109 283.713 30.0941L284.999 33.0553C284.369 33.6 283.619 33.9973 282.747 34.2555 281.875 34.5134 280.965 34.6403 280.022 34.6403Z" fill="#333333" fill-rule="nonzero" fill-opacity="1" transform="matrix(1 0 0 1.00609 60 33)"/><path d="M11.919 35.007C18.5017 35.007 23.8379 29.6708 23.8379 23.088 23.8379 16.5054 18.5017 11.1691 11.919 11.1691 5.33631 11.1691 0 16.5054 0 23.088 0 29.6708 5.33631 35.007 11.919 35.007Z" fill="url(#fill0)" fill-rule="nonzero" transform="matrix(1 0 0 1.00609 60 33)"/><path d="M129.452 33.2051 125.794 33.2051 125.794 0 139.368 0 139.368 3.6617 129.452 3.6617 129.452 33.2051Z" fill="#333333" fill-rule="nonzero" fill-opacity="1" transform="matrix(1 0 0 1.00609 60 33)"/></g></g></g></g></g></svg>